<svg xmlns="http://www.w3.org/2000/svg" viewBox="0 0 579.5 514.8">
<path fill="#20292c" stroke="#FCFCFC" id="mun_3550308" d="M245.6,426.3l-0.5-7.5l4.1-8.8l-1.2-4.3l4,3.9l14.6-0.2l-1.4-31.5l7.9,1.1l2.1-4.8v-5.1
	l-6.7-5.3l-16.1-4.8l-1.8-1.5l1.8-4l6.1-6.9v-8.2l8.6-6.4l4.5-6.7l-15.9-9.1l-2.6-6.7l3-3.7l1-13.8l-4.5-2.3l1.1-2.4l-2.6-5.3
	l5.7-22.9l24.8-23.9l2.8-4.3l-8.1-3l-9.1,4.3l-13.6,1.2l-4.5,2.5l-2.7-1.1l1.8-14.5l6.3-0.8l19.5-12.2l3.3-7.2l-0.4-12.5l2.8-3.5
	l2.4,0.5l2.6-3l-2.8-0.4l-7.3-7.5l4.9-7.3l-6.8-2.6l-3.2-4.8l1.7-4.2l-3.6-3.4l2.4-7.3l-4.2,3.8l-4.5,0.5l-4-2.6l-3.6,4.7l-0.9-0.4
	l-5.3-9.3l-0.9-6.3l-8.8-12.6l2.6-3.2l-3.7-4.5l1.6-5.7l9-0.7l3.7-2.9l1.6,4.6l4.1-1.6l4,3.1l2.5-1.4l-0.2-2.3l7.3-0.9l1.4-5.3
	l2.5-1.8l2.4,1.1l3.6-0.5l2.3,2.4l9.8-1.2l8.5,4.9l7.4,6.4l0.9,5.5l3.9,1.4l1,2.4l8.6,2.5l3.4-6.9l1.5-0.3l5.5,2.6l8.4,7.5l13.4-1.8
	l6.9-4.2l0.2-1.9l2.6,1.2l3.5-1.3l0.1-6.6l8.3-7.8l-0.7-2.3l12.5-10.5l6.7,1.3l11.9-10.8l8.1,3.1l-0.2,4.1l-4.9,4.1l-1,7.1l-4.2,3.2
	l-1.6,3.7l-0.6,6.5l-5.3,3.1l-0.9,12l1,3l-3.3,10.7l5.9,10.7l0.9,9.8l-1.4,5.6l4.5,5.7l5.9-2.1l13.7-12.8l15-5.6l14,1l-0.6,1.2
	l11.8,1.7l10.6-1.5l3.9-2.1l1.5,1l1.4-2.9l7,0.5l4.4-2l1.9,3.8l1.6-0.3l-0.8,5.2l3.1,1.2l0.8-2.1l7.6-0.9l0.9-4.5l2.9-1.2l10.3,18.8
	l-0.4,5.3l-5.9-0.9l0.8,2l-2.6,0.9l-5.4,7l-5.2,2.6l5,9.1l-4.8,3.7l3.4,5.6l6.4,1l-2.1,4.7l2.7,3.6l-3.2,1.2l4,7l-2.4-0.1l-1.2,5.7
	l-8.9,3.4l1.5,4.8l-1.6,4l-5.8,3.1l-0.1,5.1l-9.2,7.4l-5-4.7l-0.9,2l-10.8,1.9l-12.7-2.3l-7.5-8.9l-3.4-0.3l-10.7,1.1l-11.3-7.2
	l-7.6-0.3l-7.9-4.7l-6.9,2.7l-12.6-7l-2.3,25.6l-6.7,6.3l-12.7,5.8l-1.4-1.9l-6.1,1.5l-4.6,19.4l6.3,8.2l4.9,2.3L352.7,307l-7,2.9
	l-1.8,1.3l3.1,12.4l9.3,9.2l7.2,13.2l-2.4,13.5l-4,7.4l-2.3,11.2l1,6l9.6,6.5l-0.1,12.2l5.2,19.9l-2.4,9.1l-2.3,1.7l5.9,7.1
	l-2.4,3.1l2.4,4.5l-2.9,6.8l-4-0.1l-9.4,4.9l-1,3.5l3.3,5.3l-12.5,7.6l-7-8.5l-10.2,0.2l-4.5-4.3l-4.1,1.3l-5.4,4.2l-9.1,3l-4-1.9
	l-7.3,0.7l-6.1-1.2l-12.3,8.6l-6.5,0.4l-0.8-1.8l12.6-17.9l-3.8-3l-1.8-4.3l-6.2-2.9l-1-5l-2.1-0.3l-5-5.3l-12.2-2L245.6,426.3
	L245.6,426.3L245.6,426.3z"/>
<path fill="#bb0022" stroke="#FCFCFC" id="mun_3513801" d="M345.7,309.9l7-2.9l13.1-10.1l-4.9-2.3l-6.3-8.2l4.6-19.4l6.1-1.5l1.4,1.9l3.8,5.2l4.2-4
	l2.9,0.3l-1.9,4.8l5.3,3.6l7.9-3.2l-0.1,11l-5.8,5.5l-1.6,4.7l-9,8l-1.2,8.5l-2.4,2.1l-5.4,1.4L345.7,309.9L345.7,309.9L345.7,309.9
	z"/>
<path fill="#bb0022" stroke="#FCFCFC" id="mun_3548708" d="M345.6,309.9l17.7,5.4l5.4-1.4l2.5-2.1l1.2-8.5l9-7.9l1.6-4.8l5.7-5.5l0.1-11l-7.9,3.2
	l-5.3-3.6l1.9-4.8l-2.9-0.3l-4.2,4l-3.9-5.2l12.7-5.8l6.7-6.3l5.3,5.5l5.3-0.5l7.8,10.2l-0.5,10.3l9.2,2.9l4.2,7.9l9.6,2.8l-3,6
	l2.8,4.5l-1.9,7.9l1.6,4l-6,3.7l3.6,1.3l9.4-3.7l5.3,1.9l31.3,30.9l10.1,2.4l-1.2,4.3l2.2,2.1l10.7,2.1l-10,6.3l-4.7-0.4l-5.1,3
	l2.4,1.6l-2.1,5.7l3.4,0.8l-3.8,4.4l-6.5,2.4l-3.2,6.2l-3.5-2.1l-2.3,7.2l-8.7,8.4l-1.5-1.5l-6.5,9.4l-3.3,2.9l-11.9,1.1l-8.4,10
	l-8.5,4.9l-2.4,6.5l-3.9,3.7l-4.9,1.9l-1.3-1.7l-1.9,3.8l-9.9,5.7l-14.6,3.6l2.9-6.8l-2.4-4.5l2.4-3.1l-5.9-7.1l2.3-1.7l2.4-9.1
	l-5.2-19.9l0.1-12.2l-9.6-6.5l-1-6l2.3-11.2l4-7.4l2.4-13.5l-7.2-13.2l-9.1-9.8l-3.1-12.4L345.6,309.9L345.6,309.9L345.6,309.9z"/>
<path fill="#bb0022" stroke="#FCFCFC" id="mun_3548807" d="M386,255.3l2.3-25.6l12.6,6.9l6.9-2.7l1.6,5l-3,1.3l3.3,4.8l-3.4,4.7l-0.9,6.5L403,260
	l-2.5-2.5l-3.9,2.6l-5.3,0.5L386,255.3L386,255.3z"/>
<path fill="#bb0022" stroke="#FCFCFC" id="mun_3547809" d="M396.5,260.3l3.9-2.6l2.5,2.5l2.4-3.8l0.9-6.5l3.4-4.7l-3.3-4.8l3-1.3l-1.6-5l7.9,4.7l7.6,0.3
	l11.3,7.2l10.7-1.1l-1.7,9l4.8,6.3l-5.3,1l-4.4,3.7l0.4,2.5l6.5,2.7l4.1,8.9l-6.5,11.1l-0.3,7.4l4.7,0.8l1.7,4.3h3.5l3.7,4.2
	l-1.1,8.7l10.4,10.8l-3,4.2l2.1,2.2l4.7,1.3l11.8-2.5l2,5l6.6-2.6l12.7-0.9l10.8-5.5l2.7-4.3l6.8-1.1l0.9-6.2l6.1-2.6l3.6,0.9l5.3-7
	l5,1.5l6.4,5.2l-2,4.8l3.2-0.1l5.6,4.1l6.6-1.3l10.5,12.9L563,345.2l-4,0.2l-11.1,9.1v-10.9l-10-2.7L527,347l-12.3,0.3l-2.7,8.2
	l-9.9,5.6l-1.5-1.2l-9,1.8l-10.6-2.1l-2.2-2.1l1.2-4.3l-10.1-2.4l-31.3-30.9l-5.3-1.9l-9.4,3.7l-3.6-1.3l6-3.7l-1.6-4l1.9-7.9
	l-2.8-4.5l3-6l-9.6-2.8l-4.2-7.9l-9.2-2.9l0.5-10.3L396.5,260.3L396.5,260.3L396.5,260.3z"/>
<path fill="#bb0022" stroke="#FCFCFC" id="mun_3529401" d="M445.2,245l3.4,0.3l7.5,8.8l12.7,2.3l10.8-1.9l0.9-2l5,4.7l9.2-7.4l0.1-5.1l5.8-3.2l1.6-4
	l7.4,3.5l-5.4,5.6l-5,11.5l6.6,15.4l-4.2-0.3l-5.5,2.9l-5.2,5.3l-8.9-3.8l-13.1,14.5l-7.1,2.8l-9,7.6h-3.5l-1.7-4.3l-4.7-0.8
	l0.3-7.4l6.5-11.1l-4.1-8.9l-6.5-2.7l-0.4-2.5l4.4-3.7l5.3-1l-4.8-6.3L445.2,245L445.2,245L445.2,245z"/>
<path fill="#bb0022" stroke="#FCFCFC" id="mun_3515707" d="M502,237.7l-1.5-4.8l8.9-3.4l1.2-5.7l2.4,0.1l-4-7l3.2-1.2l-2.7-3.6l2.1-4.7l-6.4-1l-3.3-5.6
	l4.8-3.7l-5-9.1l5.2-2.6l5.4-7l2.6-0.9l-0.8-2l5.9,0.9l-1.4,7.5l8.5,7.6l1.4,6.1l-2.7,3l1.9,3.8l-2.3,4.3l2.6,1.5l0.6,3.5l-1.7,2.9
	l-5.1,4.5l-6.3,14.7l-6,5.3L502,237.7L502,237.7L502,237.7z"/>
<path fill="#bb0022" stroke="#FCFCFC" id="mun_3539806" d="M520.1,176.4l8.4-3.9l3,1.6l10.7-2.3l3.4,4.7l-1.7,2l-2.7,14.2l-5.7,5.8l-1.1,8.5l-5.8,6.8
	l-0.6-3.5l-2.7-1.5l2.3-4.3l-1.9-3.8l2.7-3l-1.4-6.1l-8.5-7.6L520.1,176.4L520.1,176.4L520.1,176.4z"/>
<path fill="#bb0022" stroke="#FCFCFC" id="mun_3523107" d="M507.3,153.6l-6.3-17.4l4.3,1.2l3.5-2.4l-1.4-5.1l7.8-1.6l8.3,2.3l1.7-2.3l-1.6-4.5l1.8,1.9
	l2.9-4.7l19.2,2.4l2.4-0.5l2.7-4.9l1.8,4.8l4.3,0.4l9,6.2l8.8-0.8l1.8-2.3l-0.6,8l-4.3,8.8l-4,1.4l2.2,13.8l-8.7,2.3l-1.8,3.6l2,1.4
	l-2.5,1.5l-19-4.3l-3.2,6.7l3,0.3l0.7,2.3l-10.7,2.4l-3-1.6l-8.4,3.9l0.4-5.3l-10.3-18.8L507.3,153.6L507.3,153.6z"/>
<path fill="#bb0022" stroke="#FCFCFC" id="mun_3518800" d="M414.7,85.5l10.2-5l6.3,0.1l2.5-2.3l2.5-0.4l8-0.3l1.1,4.5l2.9,2l12.9-2l9.9,0.2l-1.7-5.5
	l2.8-5.2l2.1,0.9l4.7-4.3l-0.4-3.1l6.5-8.4l3.4-1l3.5-7.9l4.5-1.2l4.2-7.8L506,39l4.5-5.6l12.1-3l3.8,15.2l-1.1,13.5l2.4,4.1
	l9.2,1.2l1.5,2.7l-10.2,11.6l-11.8,9.1l1.2,5.9l-1.6,5.4l1.6,4.9l-4,2l5.5,19.7l4.5,4.4l-8.4-2.3l-7.8,1.6l1.3,5.1l-3.5,2.4
	l-4.3-1.2l6.3,17.4l-0.9,4.4l-7.6,0.9l-0.8,2.1l-3.1-1.3l0.8-5.1l-1.6,0.3l-1.9-3.8l-4.4,2l-7-0.5l-1.4,2.9l-1.5-1l-3.9,2.1
	l-10.6,1.5l-11.8-1.7l0.6-1.3l-14-1l-15,5.6l-13.6,13.4l-5.9,2.1l-4.5-5.7l1.4-5.5l-0.9-9.8l-5.9-10.7l3.3-10.7l-1-3l0.9-12l5.3-3.1
	l0.6-6.5l1.6-3.7l4.2-3.2l1-7.1l4.9-4L414.7,85.5L414.7,85.5L414.7,85.5z"/>
<path fill="#bb0022" stroke="#FCFCFC" id="mun_3528502" d="M332.8,119.6l8.7-14.9l-2.4-3.3l1.3-2.8l-2-1.2l-0.2-4.1l-4.3-0.9l-0.8-7.8l7.3-22.6l6.4-3.3
	l1.3-4l5.2-4.2l-1.3-3.2l-4.9-3.1l-0.1-3.5l-8.8-5.2l8.9-3.5l0.1-3l2.1-2.4l3.1-1l1-4.5l7.5-0.5l2.1-1.7l-1.2-6.3l2.7-2.1l3.1-8.7
	l3.6-0.6l3.3,2.3l-1.7,2.8l9.1,1.8l5.2-2.6l5,0.3l6.1,2.8l6.8,0.7l3.2,1.7l19.4-1.6l1.5,6.8l5.8-0.9l8.5,6.1l6.4,6.7l5.7,9l5.9-3.1
	l-0.4-3.9l8.6-0.9l7.4,5.1l-0.9,3.5l6.9,8.1l5.3,10.2l-3.4,1l-6.5,8.4l0.4,3.1l-4.7,4.3l-2.1-1l-2.8,5.2l1.7,5.5l-9.9-0.2l-12.9,2
	l-2.9-2l-1.1-4.5l-8,0.3l-2.5,0.3l-2.5,2.3l-6.3-0.1l-10.1,5l-8.1-3.1l-11.9,10.8l-6.7-1.3l-12.5,10.5l0.7,2.3l-8.3,7.8l-0.1,6.6
	l-3.5,1.3l-2.6-1.2l-0.2,1.9l-6.9,4.2l-13.4,1.8L332.8,119.6L332.8,119.6L332.8,119.6z"/>
<path fill="#bb0022" stroke="#FCFCFC" id="mun_3509007" d="M238.2,108.5l-0.5-43.1l2.6,3.6l9,1.6l6.5,4.3l3.1-1.3l6.2,4.3l3.1-0.9l4.8-8.8l8.5-4.9
	l5.6,6.7v10.1l16.1,0.8l7.5,4.5l4.5-0.3l10.6,3.5l4.9-1.8l2.2-2.2l0.8,7.8l4.4,0.9l0.2,4.1l2,1.2l-1.3,2.8l2.4,3.3l-8.7,14.9
	l-5.5-2.6l-1.5,0.3l-3.4,6.9l-8.6-2.5l-0.9-2.4l-3.9-1.4l-1-5.5l-7.4-6.4l-8.5-4.9l-9.8,1.2l-2.4-2.4l-3.6,0.5l-2.4-1.1l-2.5,1.8
	l-1.4,5.3l-7.3,0.9l0.2,2.3l-2.5,1.4l-4-3.1l-4,1.6l-1.6-4.6l-3.7,2.9L238.2,108.5L238.2,108.5L238.2,108.5z"/>
<path fill="#bb0022" stroke="#FCFCFC" id="mun_3509205" d="M168.1,59.8l3.7-5.5l5.4-2.3l2.2,1.6l10.1-2l6.9-4.4l3.2-5.5l5.1-0.3l2.8-5l2.8-2.3h3.9
	l5.5,3.6l5.7-1.1l4,2.8l-3.1,4.4l0.8,4.4l4.5,4.8l6.4,2l-1.1,4.7l0.8,5.8l0.5,43.1l-1.6,5.7l3.7,4.5l-2.6,3.2l-5.2,4.9l-5.7-5.6
	l-9.4-4l-1-9l-7,0.2l-8.4-3l-2.2,2.8H190l-7.1-4.5l-0.2-3.7l-4.5,2l-3.8-0.1l-1.5-2.2l-1.7-4.7l9.6-2.5l7.6-5.2l0.5-4.6l-5.9-3.1
	l-4,2.2l-6-0.3l-3.1,5.2l-4.8-8.6l2.4-3.4L168.1,59.8L168.1,59.8L168.1,59.8z"/>
<path fill="#bb0022" stroke="#FCFCFC" id="mun_3547304" d="M107.4,129.6l24.2-3.5l5.5,2.8l6.9-4.5l-1.1-5.1l6.8-2l1.4-2.5l6.5,0.2l5.9-6.2l-6.7-2.5
	l11.9-5.2v-1.9l4.2,0.5l1.5,2.2l3.8,0.1l4.5-2l0.2,3.7l7.1,4.5h8.7l2.2-2.8l8.4,3l7-0.2l1,9l9.4,4l5.7,5.6l5.2-4.9l8.8,12.6l0.9,6.3
	l5.3,9.3l-5.7,9.9l-3.5,0.9l-3.4-3l-8.4,1.7l-9.3-1.9l-3,1.7l-9.8-3.5l-5.2,0.9L200,152l-6.3,10.9l-10.5,1.1l-2-1.9l-20.4-2
	l-9.5,7.4l-1.9,2.6l-10.2,1.6l-3.4,2.2l-2.9-0.6l-5.7-2.1l-6-10.9l-3.2-0.9l4-13l-1.6-2.9l1.9-2.1l-0.6-4.7l-7.9-3.4l-3.4,0.4
	L107.4,129.6L107.4,129.6L107.4,129.6z"/>
<path fill="#bb0022" stroke="#FCFCFC" id="mun_3534401" d="M241.5,219.5l1.9-8.2l-4.4-12.9l2.2-16.6l6-7.5l-2.1-4.7l7-9.9l1.5-9.1l3.6-4.7l4,2.6l4.5-0.4
	l4.2-3.8l-2.3,7.3l3.6,3.4l-1.7,4.2l3.2,4.8l6.8,2.6l-4.9,7.3l7.3,7.5l2.8,0.5l-2.6,3l-2.4-0.5l-2.8,3.5l0.4,12.5l-3.3,7.2
	l-19.5,12.2l-6.3,0.8l-1.7,14.5l-5.3-4.4l2.7-4.8L241.5,219.5L241.5,219.5L241.5,219.5z"/>
<path fill="#bb0022" stroke="#FCFCFC" id="mun_3505708" d="M151.5,167.5l9.5-7.4l20.4,2l2,1.9l10.5-1.1l6.2-10.9l4.4,4.8l5.2-0.9l9.8,3.5l3-1.7l9.3,1.9
	l8.4-1.7l3.4,3l3.5-0.9l5.7-9.9l0.9,0.4l-1.5,9.1l-7,9.9l2.1,4.7l-6,7.5l-4,0.7l-7-6.6h-10.5l-6,8l0.3,13.4l-13.3,4.2l-3.4-0.7
	l-3.1-7.6l1.3-4.6l-2.6-4.2l-4.5-3.2l-4.8,0.9l-1.5-3.7l-2.9-1l-6.9-0.1l-9.8-4.8l-5.5-0.5L151.5,167.5L151.5,167.5L151.5,167.5z"/>
<path fill="#bb0022" stroke="#FCFCFC" id="mun_3513009" d="M78.8,263.6l5.4-4.4l7-2.7l1.5-9l8.7,2.8l6.1,6.7l7.2,0.9l3.7,7.5l13,2.1l0.7,5.4l3.9-2.7
	l1.5-6.9l-3.2-5.5l2.3-10.7l-1.8-11.1l7.9-3.9h10.1l3.5-7.7l16.5-16.6l6.7,1.3l4.4-1.3l6.2,3.3l9.8,0.4l5.5-2.3l6.3,6.8l9,3.3
	l4.5,0.3l0.9-3l5.3-0.6l6.8,4.5l3.5-1.1l2.6,6.2l-2.7,4.8l5.2,4.3l-1,2.2L228.6,247l-5.5-4.7h-3.6l-2.5-4.5l-7.5,6.1l-8.6-2.1
	l-3,3.5l-10.6,3.3l-7.5,17.4l1.7,2l6.8,0.7l1.7,3.2l7.7-1.1l-4.9,6.4l-4.1,20.8l-7.1,8.4l-4.4,1.2l-0.5,2.9l-2.7-0.8l-2.9,1.9
	l-1.3,2.7l4,7l-2,2.6l0.7,3.1l-5.5,11.1l-1.4,5.9l-4.5-0.1l-1.2,3.5h-4.4l-4.5-4.9l-0.7-5.3l-1.9-0.2l-8.6,5.9l1.6,4.3l-5.2,5.4
	l-2.2,1.8l-3.2-0.7l-7.2-6.8l-2.9,0.5l-4.7-4.3l-2.9-8.3l-3.3-1.3l1.6-7.2l-3.2-0.1l-1.1-3.3l2.1-5.6l-1.5-4.3l-7.7-0.8l-9.2-16
	l1.6-4.9l-2-6.5l0.2-4.4l-6.7-0.8l-2.5-1.9l-0.5-2.9l-3.8-3.5L78.8,263.6L78.8,263.6L78.8,263.6z"/>
<path fill="#bb0022" stroke="#FCFCFC" id="mun_3552809" d="M245.6,237.1l1-2.2l2.7,1.1l4.5-2.5l13.6-1.2l9.1-4.3l8.1,3l-2.8,4.3L257,259l-16.9-6.5
	l5.4-5.7L245.6,237.1L245.6,237.1z"/>
<path fill="#bb0022" stroke="#FCFCFC" id="mun_3515004" d="M197.4,271.2l-7.6,1.1l-1.7-3.2l-6.8-0.7l-1.7-2l7.6-17.4l10.6-3.3l3.1-3.5l8.6,2.1l7.5-6.1
	l2.5,4.5h3.6l5.4,4.7l17.2-10.1l-0.3,9.8l-5.4,5.6l16.9,6.5l-5.7,22.9l-11.7,1.8l-1.3-5.4l-3.1-1.6l-11.3,3l-1.9,2.4l-13.3-0.9
	L197.4,271.2L197.4,271.2L197.4,271.2z"/>
<path fill="#bb0022" stroke="#FCFCFC" id="mun_3522208" d="M166.7,338.4l5.5-11.1l-0.7-3.1l2-2.6l-4-7l1.3-2.7l2.9-1.9l2.7,0.8l0.5-2.9l4.4-1.2l7-8.4
	l4.1-20.8l4.9-6.4l11.3,10l13.3,0.9l1.9-2.4l11.3-3l3.1,1.6l1.3,5.4l11.7-1.8l2.6,5.3l-1.1,2.4l4.5,2.3l-1,13.8l-3,3.7l2.6,6.7
	l15.9,9.1l-4.5,6.7l-7.3-0.8l-7.2,3.8l-4.6-2.7l-8.7,0.4l-6.4,7l-5.4-0.1l-6.4,10.5l-3.7-0.6l-0.9,2.6l-3.8,3l-5.4-3.6l-5.2-5.1
	l-6.9,2.9l-3.6,0.4l-7.1-7.7l0.4,5.6l-2.6-2.1l-1.6-3.3L166.7,338.4L166.7,338.4L166.7,338.4z"/>
<path fill="#bb0022" stroke="#FCFCFC" id="mun_3515103" d="M185.1,435.2l10.6-10.6l2.2-10.7l4-3.5l7.2-0.3l2.6-4.1l3-0.4l6.3-12.4l1-7.3l-14.2-0.9
	l-6.8-6.6l-7.3-2.7l4.9-2.9l2.8-3.2l-1-5.4l4-4.5l-1.8-6l5.2-2.1l5.4,3.6l3.8-3l0.9-2.6l3.7,0.6l6.4-10.5l5.4,0.1l6.4-7l8.7-0.4
	l4.5,2.7l7.2-3.8l7.3,0.8l-8.6,6.4v8.2l-6.1,6.9l-1.8,4l1.9,1.5l16.1,4.7l6.7,5.3v5.1l-2.2,4.8l-7.9-1.1l1.4,31.5l-14.6,0.2l-4-3.9
	l1.2,4.3l-4.1,8.8l0.5,7.6l-19.2,10.4l-1.2-1.3l-8.2,1.9l-5-3.3l-4.2,1.4l-1.4-3.8l-3.6-0.3l-14.8,8L185.1,435.2L185.1,435.2
	L185.1,435.2z"/>
<path fill="#bb0022" stroke="#FCFCFC" id="mun_3526209" d="M5.8,475.3l3.5-5.3l3.3-0.2l-3.2-10l-4-1.2l0.2-2.4l-2.8,1l-1.7-3.5l1.8-2.9l5.3-1.3l1.2-2.7
	L5,442.4l0.8-4.5l3.1,1.1l3-1.2l-1.3-4.1l0.8-3l4.6,1.9l2.5,3.7l1.5-3.2l2.9,1.7l8.1-0.2l2.3-8L44,416.4l-2.1-2.4l3.9-3.4l-2.4-3
	l3.8-4.3l-1-1.5l4.4-2.1l0.5-1.4l-3.5-1.4l1.6-5.7l7.2-8.7l0.8-5l6.7,4.9l23.9-3.2l0.6-3.1l9.2,4.1l7.9-6l6.1,6.4l12.9,12l6.1,4.2
	l2.5,7.3l3.1,2.6l-1.8,2.5l4.9,1.3l6.1-4.7l11.1,9.5l2.5,10.5l4.8,6.8l2.4-1.2l10.1,4.8l2.1-1.8l2.6,2.9l4.2-2l2.9,4l14.8-8l3.6,0.4
	l1.4,3.8l4.2-1.4l5,3.4l8.2-1.9l1.2,1.3l19.2-10.4l2.6,10.5l-14.4,5.9l4.2,4.8l-2,1.9l-5.3-1.2L210.5,463l-3.7-0.9l-5.5,3.3
	l-0.3,3.4l4.9,7.5l2.5-2l1.2,1.3l0.4,5.4l-3,4l3.5,1.9l-2.6,2.9l-8.3,0.3l-0.1,2.6l-4.7,3.5l2.3,2.6l-5.3,1.8l-1.5,2.8l-6.8-2.8
	l-10.4,2.1l-4.9-7.1l-6.1,6.2l-13.3,0.7l1.9,8.4l-8,3.1l-3.7-3.3h-4.8l-3.2-4l-4.8,0.5l-1.8,4.5l-5.5-0.4l-6.8-4.2l0.4-6.2l-1.9-0.3
	l-1.6-5.3l-5.3-5l-3.1,0.1V487l-4.7-4.9l-2.9,0.1l-6.4,8.3l-14.2-4.7l-0.5-4.4l-4.2-2.4l-0.5-5.3l-4.1-1.9l-10.3,1.6l1.4,5.7
	l-3.8,1.6l-6.5,3l-19.4-7.3l-11.3,0.1l-3.1-2.4L5.8,475.3L5.8,475.3L5.8,475.3z"/>
</svg>
