<?xml version="1.0" encoding="utf-8"?>
<!-- Generator: Adobe Illustrator 24.2.0, SVG Export Plug-In . SVG Version: 6.00 Build 0)  -->
<svg version="1.1"
	 id="svg3679" inkscape:version="0.48.1 " sodipodi:docname="Mapa-RMSP.svg" xmlns:cc="http://creativecommons.org/ns#" xmlns:dc="http://purl.org/dc/elements/1.1/" xmlns:inkscape="http://www.inkscape.org/namespaces/inkscape" xmlns:rdf="http://www.w3.org/1999/02/22-rdf-syntax-ns#" xmlns:sodipodi="http://sodipodi.sourceforge.net/DTD/sodipodi-0.dtd" xmlns:svg="http://www.w3.org/2000/svg"
	 xmlns="http://www.w3.org/2000/svg" xmlns:xlink="http://www.w3.org/1999/xlink" x="0px" y="0px" viewBox="0 0 578 513.4"
	 style="enable-background:new 0 0 578 513.4;" xml:space="preserve">
<style type="text/css">
	.st0{fill-rule:evenodd;clip-rule:evenodd;fill:#20292C;stroke:#FCFCFC;stroke-width:2;}
	.st1{fill-rule:evenodd;clip-rule:evenodd;fill:#BB0022;stroke:#FCFCFC;stroke-width:2;}
</style>
<sodipodi:namedview  bordercolor="#666666" borderopacity="1.0" id="base" inkscape:current-layer="layer1" inkscape:cx="358.85299" inkscape:cy="389.43326" inkscape:document-units="px" inkscape:pageopacity="0.0" inkscape:pageshadow="2" inkscape:window-height="719" inkscape:window-maximized="1" inkscape:window-width="1280" inkscape:window-x="-4" inkscape:window-y="-4" inkscape:zoom="0.70710678" pagecolor="#ffffff" showgrid="false">
	</sodipodi:namedview>
<g id="layer1" transform="translate(0,-452.36218)" inkscape:groupmode="layer" inkscape:label="Camada 1">
	<path id="mun_3550308" inkscape:connector-curvature="0" class="st0" d="M244.9,878l-0.5-7.5l4.1-8.8l-1.2-4.3l4,3.9l14.6-0.2
		l-1.4-31.5l7.9,1.1l2.1-4.8l0-5.1l-6.7-5.3l-16.1-4.8l-1.8-1.5l1.8-4l6.1-6.9l0-8.2l8.6-6.4l4.5-6.7l-15.9-9.1l-2.6-6.7l3-3.7
		l1-13.8l-4.5-2.3l1.1-2.4l-2.6-5.3l5.7-22.9l24.8-23.9l2.8-4.3l-8.1-3l-9.1,4.3l-13.6,1.2l-4.5,2.5l-2.7-1.1l1.8-14.5l6.3-0.8
		l19.5-12.2l3.3-7.2l-0.4-12.5l2.8-3.5l2.4,0.5l2.6-3l-2.8-0.4l-7.3-7.5l4.9-7.3l-6.8-2.6l-3.2-4.8l1.7-4.2l-3.6-3.4l2.4-7.3
		l-4.2,3.8l-4.5,0.5l-4-2.6l-3.6,4.7l-0.9-0.4l-5.3-9.3l-0.9-6.3l-8.8-12.6l2.6-3.2l-3.7-4.5l1.6-5.7l9-0.7l3.7-2.9l1.6,4.6l4.1-1.6
		l4,3.1l2.5-1.4L262,559l7.3-0.9l1.4-5.3l2.5-1.8l2.4,1.1l3.6-0.5l2.3,2.4l9.8-1.2l8.5,4.9l7.4,6.4l0.9,5.5l3.9,1.4l1,2.4l8.6,2.5
		l3.4-6.9l1.5-0.3l5.5,2.6l8.4,7.5l13.4-1.8l6.9-4.2l0.2-1.9l2.6,1.2l3.5-1.3l0.1-6.6l8.3-7.8l-0.7-2.3l12.5-10.5l6.7,1.3l11.9-10.8
		l8.1,3.1l-0.2,4.1l-4.9,4.1l-1,7.1l-4.2,3.2l-1.6,3.7l-0.6,6.5l-5.3,3.1l-0.9,12l1,3l-3.3,10.7l5.9,10.7l0.9,9.8l-1.4,5.6l4.5,5.7
		l5.9-2.1l13.7-12.8l15-5.6l14,1l-0.6,1.2l11.8,1.7l10.6-1.5l3.9-2.1l1.5,1l1.4-2.9l7,0.5l4.4-2l1.9,3.8l1.6-0.3l-0.8,5.2l3.1,1.2
		l0.8-2.1l7.6-0.9l0.9-4.5l2.9-1.2l10.3,18.8l-0.4,5.3l-5.9-0.9l0.8,2l-2.6,0.9l-5.4,7l-5.2,2.6l5,9.1l-4.8,3.7l3.4,5.6l6.4,1
		l-2.1,4.7l2.7,3.6l-3.2,1.2l4,7l-2.4-0.1l-1.2,5.7l-8.9,3.4l1.5,4.8l-1.6,4l-5.8,3.1l-0.1,5.1l-9.2,7.4l-5-4.7l-0.9,2l-10.8,1.9
		l-12.7-2.3l-7.5-8.9l-3.4-0.3l-10.7,1.1l-11.3-7.2l-7.6-0.3l-7.9-4.7l-6.9,2.7l-12.6-7l-2.3,25.6l-6.7,6.3l-12.7,5.8l-1.4-1.9
		l-6.1,1.5l-4.6,19.4l6.3,8.2l4.9,2.3L352,758.7l-7,2.9l-1.8,1.3l3.1,12.4l9.3,9.2l7.2,13.2l-2.4,13.5l-4,7.4l-2.3,11.2l1,6l9.6,6.5
		l-0.1,12.2l5.2,19.9l-2.4,9.1l-2.3,1.7l5.9,7.1l-2.4,3.1l2.4,4.5l-2.9,6.8l-4-0.1l-9.4,4.9l-1,3.5l3.3,5.3l-12.5,7.6l-7-8.5
		l-10.2,0.2l-4.5-4.3l-4.1,1.3l-5.4,4.2l-9.1,3l-4-1.9l-7.3,0.7l-6.1-1.2l-12.3,8.6l-6.5,0.4l-0.8-1.8l12.6-17.9l-3.8-3L274,904
		l-6.2-2.9l-1-5l-2.1-0.3l-5-5.3l-12.2-2L244.9,878L244.9,878L244.9,878z"/>
	<path id="mun_3513801" inkscape:connector-curvature="0" class="st1" d="M344.9,761.6l7-2.9l13.1-10.1l-4.9-2.3l-6.3-8.2l4.6-19.4
		l6.1-1.5l1.4,1.9l3.8,5.2l4.2-4l2.9,0.3l-1.9,4.8l5.3,3.6l7.9-3.2l-0.1,11l-5.7,5.5l-1.6,4.7l-9,8l-1.2,8.5l-2.4,2.1l-5.4,1.4
		L344.9,761.6L344.9,761.6L344.9,761.6z"/>
	<path id="mun_3548708" inkscape:connector-curvature="0" class="st1" d="M344.9,761.6l17.7,5.4l5.4-1.4l2.5-2.1l1.2-8.5l9-7.9
		l1.6-4.8l5.7-5.5l0.1-11l-7.9,3.2l-5.3-3.6l1.9-4.8l-2.9-0.3l-4.2,4l-3.9-5.2l12.7-5.8l6.7-6.3l5.3,5.5l5.3-0.5l7.8,10.2l-0.5,10.3
		l9.2,2.9l4.2,7.9l9.6,2.8l-3,6l2.8,4.5l-1.9,7.9l1.6,4l-6,3.7l3.6,1.3l9.4-3.7l5.3,1.9l31.3,30.9l10.1,2.4l-1.2,4.3l2.2,2.1
		l10.7,2.1l-10,6.3l-4.7-0.4l-5.1,3l2.4,1.6l-2.1,5.7l3.4,0.8l-3.8,4.4l-6.5,2.4l-3.2,6.2l-3.5-2.1l-2.3,7.2l-8.7,8.4l-1.5-1.5
		l-6.5,9.4l-3.3,2.9l-11.9,1.1l-8.4,10l-8.5,4.9l-2.4,6.5l-3.9,3.7l-4.9,1.9l-1.3-1.7l-1.9,3.8l-9.9,5.7l-14.6,3.6l2.9-6.8l-2.4-4.5
		l2.4-3.1l-5.9-7.1l2.3-1.7l2.4-9.1l-5.2-19.9l0.1-12.2l-9.6-6.5l-1-6l2.3-11.2l4-7.4l2.4-13.5l-7.2-13.2l-9.3-9.2l-3.1-12.4
		L344.9,761.6L344.9,761.6L344.9,761.6z"/>
	<path id="mun_3548807" inkscape:connector-curvature="0" class="st1" d="M385.2,707.1l2.3-25.6l12.6,6.9l6.9-2.7l1.6,5l-3,1.3
		l3.3,4.8l-3.4,4.7l-0.9,6.5l-2.4,3.8l-2.5-2.5l-3.9,2.6l-5.3,0.5L385.2,707.1L385.2,707.1z"/>
	<path id="mun_3547809" inkscape:connector-curvature="0" class="st1" d="M395.8,712l3.9-2.6l2.5,2.5l2.4-3.8l0.9-6.5l3.4-4.7
		l-3.3-4.8l3-1.3l-1.6-5l7.9,4.7l7.6,0.3l11.3,7.2l10.7-1.1l-1.7,9l4.8,6.3l-5.3,1l-4.4,3.7l0.4,2.5l6.5,2.7l4.1,8.9l-6.5,11.1
		l-0.3,7.4l4.7,0.8l1.7,4.3l3.5,0l3.7,4.2l-1.1,8.7l10.4,10.8l-3,4.2l2.1,2.2l4.7,1.3l11.8-2.5l2,5l6.6-2.6l12.7-0.9l10.8-5.5
		l2.7-4.3l6.8-1.1l0.9-6.2l6.1-2.6l3.6,0.9l5.3-7l5,1.5l6.4,5.2l-2,4.8l3.2-0.1l5.6,4.1l6.6-1.3l10.5,12.9l-11.1,10.6l-4,0.2
		l-11.1,9.1v-10.6l-10-2.7l-10.9,6.1l-12.3,0.3l-2.7,8.2l-9.9,5.6l-1.5-1.2l-9,1.8l-10.7-2.1l-2.2-2.1l1.2-4.3l-10.1-2.4l-31.3-30.9
		l-5.3-1.9l-9.4,3.7l-3.6-1.3l6-3.7l-1.6-4l1.9-7.9l-2.8-4.5l3-6l-9.6-2.8l-4.2-7.9l-9.2-2.9l0.5-10.3L395.8,712L395.8,712
		L395.8,712z"/>
	<path id="mun_3529401" inkscape:connector-curvature="0" class="st1" d="M444.4,696.7l3.4,0.3l7.5,8.8l12.7,2.3l10.8-1.9l0.9-2
		l5,4.7l9.2-7.4l0.1-5.1l5.8-3.2l1.6-4l7.4,3.5l-5.4,5.6l-5,11.5l6.6,15.4l-4.2-0.3l-5.5,2.9l-5.2,5.3l-8.9-3.8L468.1,744l-7.1,2.8
		l-9,7.6l-3.5,0l-1.7-4.3l-4.7-0.8l0.3-7.4l6.5-11.1l-4.1-8.9l-6.5-2.7l-0.4-2.5l4.4-3.7l5.3-1l-4.8-6.3L444.4,696.7L444.4,696.7
		L444.4,696.7z"/>
	<path id="mun_3515707" inkscape:connector-curvature="0" class="st1" d="M501.3,689.4l-1.5-4.8l8.9-3.4l1.2-5.7l2.4,0.1l-4-7
		l3.2-1.2l-2.7-3.6l2.1-4.7l-6.4-1l-3.3-5.6l4.8-3.7l-5-9.1l5.2-2.6l5.4-7l2.6-0.9l-0.8-2l5.9,0.9l-1.4,7.5l8.5,7.6l1.4,6.1l-2.7,3
		l1.9,3.8l-2.3,4.3l2.6,1.5l0.6,3.5l-1.7,2.9l-5.1,4.5l-6.3,14.7l-6,5.3L501.3,689.4L501.3,689.4L501.3,689.4z"/>
	<path id="mun_3539806" inkscape:connector-curvature="0" class="st1" d="M519.3,628.1l8.4-3.9l3,1.6l10.7-2.3l3.4,4.7l-1.7,2
		l-2.7,14.2l-5.7,5.8l-1.1,8.5l-5.8,6.8l-0.6-3.5l-2.7-1.5l2.3-4.3l-1.9-3.8l2.7-3l-1.4-6.1l-8.5-7.6L519.3,628.1L519.3,628.1
		L519.3,628.1z"/>
	<path id="mun_3523107" inkscape:connector-curvature="0" class="st1" d="M506.5,605.3l-6.3-17.4l4.3,1.2l3.5-2.4l-1.4-5.1l7.8-1.6
		l8.3,2.3l1.7-2.3l-1.6-4.5l1.8,1.9l2.9-4.7l19.2,2.4l2.4-0.5l2.7-4.9l1.8,4.8l4.3,0.4l9,6.2l8.8-0.8l1.8-2.3l-0.6,8l-4.3,8.8
		l-4,1.4l2.2,13.8l-8.7,2.3l-1.8,3.6l2,1.4l-2.5,1.5l-19-4.3l-3.2,6.7l3,0.3l0.7,2.3l-10.7,2.4l-3-1.6l-8.4,3.9l0.4-5.3L509.4,604
		L506.5,605.3L506.5,605.3z"/>
	<path id="mun_3518800" inkscape:connector-curvature="0" class="st1" d="M414,537.2l10.2-5l6.3,0.1l2.5-2.3l2.5-0.4l8-0.3l1.1,4.5
		l2.9,2l12.9-2l9.9,0.2l-1.7-5.5l2.8-5.2l2.1,0.9l4.7-4.3l-0.4-3.1l6.5-8.4l3.4-1l3.5-7.9l4.5-1.2l4.2-7.8l5.4,0.2l4.5-5.6l12.1-3
		l3.8,15.2l-1.1,13.5l2.4,4.1l9.2,1.2l1.5,2.7l-10.2,11.6l-11.8,9.1l1.2,5.9l-1.6,5.4l1.6,4.9l-4,2l5.5,19.7l4.5,4.4l-8.4-2.3
		l-7.8,1.6l1.3,5.1l-3.5,2.4l-4.3-1.2l6.3,17.4l-0.9,4.4l-7.6,0.9l-0.8,2.1l-3.1-1.3l0.8-5.1l-1.6,0.3l-1.9-3.8l-4.4,2l-7-0.5
		l-1.4,2.9l-1.5-1l-3.9,2.1l-10.6,1.5l-11.8-1.7l0.6-1.3l-14-1l-15,5.6l-13.7,12.8l-5.9,2.1l-4.5-5.7l1.4-5.5l-0.9-9.8l-5.9-10.7
		l3.3-10.7l-1-3l0.9-12l5.3-3.1l0.6-6.5l1.6-3.7l4.2-3.2l1-7.1l4.9-4L414,537.2L414,537.2L414,537.2z"/>
	<path id="mun_3528502" inkscape:connector-curvature="0" class="st1" d="M332,571.3l8.7-14.9l-2.4-3.3l1.3-2.8l-2-1.2l-0.2-4.1
		l-4.3-0.9l-0.8-7.8l7.3-22.6l6.4-3.3l1.3-4l5.2-4.2l-1.3-3.2l-4.9-3.1l-0.1-3.5l-8.8-5.2l8.9-3.5l0.1-3l2.1-2.4l3.1-1l1-4.5
		l7.5-0.5l2.1-1.7l-1.2-6.3l2.7-2.1l3.1-8.7l3.6-0.6l3.3,2.3l-1.7,2.8l9.1,1.8l5.2-2.6l5,0.3l6.1,2.8l6.8,0.7l3.2,1.7l19.4-1.6
		l1.5,6.8l5.8-0.9l8.5,6.1l6.4,6.7l5.7,9l5.9-3.1l-0.4-3.9l8.6-0.9l7.4,5.1l-0.9,3.5l6.9,8.1l5.3,10.2l-3.4,1l-6.5,8.4l0.4,3.1
		l-4.7,4.3l-2.1-1l-2.8,5.2l1.7,5.5l-9.9-0.2l-12.9,2l-2.9-2l-1.1-4.5l-8,0.3l-2.5,0.3l-2.5,2.3l-6.3-0.1l-10.1,5l-8.1-3.1
		l-11.9,10.8l-6.7-1.3l-12.5,10.5l0.7,2.3l-8.3,7.8l-0.1,6.6l-3.5,1.3l-2.6-1.2l-0.2,1.9l-6.9,4.2l-13.4,1.8L332,571.3L332,571.3
		L332,571.3z"/>
	<path id="mun_3509007" inkscape:connector-curvature="0" class="st1" d="M237.5,560.2l-0.5-43.1l2.6,3.6l9,1.6l6.5,4.3l3.1-1.3
		l6.2,4.3l3.1-0.9l4.8-8.8l8.5-4.9l5.6,6.7l0,10.1l16.1,0.8l7.5,4.5l4.5-0.3l10.6,3.5l4.9-1.8l2.2-2.2l0.8,7.8l4.4,0.9l0.2,4.1
		l2,1.2l-1.3,2.8l2.4,3.3l-8.7,14.9l-5.5-2.6L325,569l-3.4,6.9l-8.6-2.5l-0.9-2.4l-3.9-1.4l-1-5.5l-7.4-6.4l-8.5-4.9l-9.8,1.2
		l-2.4-2.4l-3.6,0.5l-2.4-1.1l-2.5,1.8l-1.4,5.3L262,559l0.2,2.3l-2.5,1.4l-4-3.1l-4,1.6l-1.6-4.6l-3.7,2.9L237.5,560.2L237.5,560.2
		L237.5,560.2z"/>
	<path id="mun_3509205" inkscape:connector-curvature="0" class="st1" d="M167.3,511.5l3.7-5.5l5.4-2.3l2.2,1.6l10.1-2l6.9-4.4
		l3.2-5.5l5.1-0.3l2.8-5l2.8-2.3l3.9,0l5.5,3.6l5.7-1.1l4,2.8l-3.1,4.4l0.8,4.4l4.5,4.8l6.4,2l-1.1,4.7l0.8,5.8l0.5,43.1l-1.6,5.7
		l3.7,4.5l-2.6,3.2l-5.2,4.9l-5.7-5.6l-9.4-4l-1-9l-7,0.2l-8.4-3L198,560h-8.7l-7.1-4.5l-0.2-3.7l-4.5,2l-3.8-0.1l-1.5-2.2l-1.7-4.7
		l9.6-2.5l7.6-5.2l0.5-4.6l-5.9-3.1l-4,2.2l-6-0.3l-3.1,5.2l-4.8-8.6l2.4-3.4L167.3,511.5L167.3,511.5L167.3,511.5z"/>
	<path id="mun_3547304" inkscape:connector-curvature="0" class="st1" d="M106.7,581.3l24.2-3.5l5.5,2.8l6.9-4.5l-1.1-5.1l6.8-2
		l1.4-2.5l6.5,0.2l5.9-6.2l-6.7-2.5l11.9-5.2v-1.9l4.2,0.5l1.5,2.2l3.8,0.1l4.5-2l0.2,3.7l7.1,4.5h8.7l2.2-2.8l8.4,3l7-0.2l1,9
		l9.4,4l5.7,5.6l5.2-4.9l8.8,12.6l0.9,6.3l5.3,9.3l-5.7,9.9l-3.5,0.9l-3.4-3l-8.4,1.7l-9.3-1.9l-3,1.7l-9.8-3.5l-5.2,0.9l-4.3-4.8
		l-6.3,10.9l-10.5,1.1l-2-1.9l-20.4-2l-9.5,7.4l-1.9,2.6l-10.2,1.6l-3.4,2.2l-2.9-0.6l-5.7-2.1l-6-10.9l-3.2-0.9l4-13l-1.6-2.9
		l1.9-2.1l-0.6-4.7l-7.9-3.4l-3.4,0.4L106.7,581.3L106.7,581.3L106.7,581.3z"/>
	<path id="mun_3534401" inkscape:connector-curvature="0" class="st1" d="M240.8,671.2l1.9-8.2l-4.4-12.9l2.2-16.6l6-7.5l-2.1-4.7
		l7-9.9l1.5-9.1l3.6-4.7l4,2.6l4.5-0.4l4.2-3.8l-2.3,7.3l3.6,3.4l-1.7,4.2l3.2,4.8l6.8,2.6l-4.9,7.3l7.3,7.5l2.8,0.5l-2.6,3
		l-2.4-0.5l-2.8,3.5l0.4,12.5l-3.3,7.2L254,671.3l-6.3,0.8l-1.7,14.5l-5.3-4.4l2.7-4.8L240.8,671.2L240.8,671.2L240.8,671.2z"/>
	<path id="mun_3505708" inkscape:connector-curvature="0" class="st1" d="M150.7,619.2l9.5-7.4l20.4,2l2,1.9l10.5-1.1l6.2-10.9
		l4.4,4.8l5.2-0.9l9.8,3.5l3-1.7l9.3,1.9l8.4-1.7l3.4,3l3.5-0.9l5.7-9.9l0.9,0.4l-1.5,9.1l-7,9.9l2.1,4.7l-6,7.5l-4,0.7l-7-6.6
		h-10.5l-6,8l0.3,13.4l-13.3,4.2l-3.4-0.7l-3.1-7.6l1.3-4.6l-2.6-4.2l-4.5-3.2l-4.8,0.9l-1.5-3.7l-2.9-1l-6.9-0.1l-9.8-4.8l-5.5-0.5
		L150.7,619.2L150.7,619.2L150.7,619.2z"/>
	<path id="mun_3513009" inkscape:connector-curvature="0" class="st1" d="M78.1,715.3l5.4-4.4l7-2.7l1.5-9l8.7,2.8l6.1,6.7l7.2,0.9
		l3.7,7.5l13,2.1l0.7,5.4l3.9-2.7l1.5-6.9l-3.2-5.5l2.3-10.7l-1.8-11.1l7.9-3.9H152l3.5-7.7l16.5-16.6l6.7,1.3l4.4-1.3l6.2,3.3
		l9.8,0.4l5.5-2.3l6.3,6.8l9,3.3l4.5,0.3l0.9-3l5.3-0.6l6.8,4.5l3.5-1.1l2.6,6.2l-2.7,4.8l5.2,4.3l-1,2.2l-17.2,10.1l-5.5-4.7h-3.6
		l-2.5-4.5l-7.5,6.1l-8.6-2.1l-3,3.5l-10.6,3.3l-7.5,17.4l1.7,2l6.8,0.7l1.7,3.2l7.7-1.1l-4.9,6.4l-4.1,20.8l-7.1,8.4l-4.4,1.2
		l-0.5,2.9l-2.7-0.8l-2.9,1.9l-1.3,2.7l4,7l-2,2.6l0.7,3.1l-5.5,11.1l-1.4,5.9l-4.5-0.1l-1.2,3.5h-4.4l-4.5-4.9l-0.7-5.3l-1.9-0.2
		l-8.6,5.9l1.6,4.3l-5.2,5.4l-2.2,1.8l-3.2-0.7l-7.2-6.8l-2.9,0.5l-4.7-4.3l-2.9-8.3l-3.3-1.3l1.6-7.2l-3.2-0.1l-1.1-3.3l2.1-5.6
		l-1.5-4.3l-7.7-0.8l-9.2-16l1.6-4.9l-2-6.5l0.2-4.4l-6.7-0.8l-2.5-1.9l-0.5-2.9l-3.8-3.5L78.1,715.3L78.1,715.3L78.1,715.3z"/>
	<path id="mun_3552809" inkscape:connector-curvature="0" class="st1" d="M244.9,688.8l1-2.2l2.7,1.1l4.5-2.5l13.6-1.2l9.1-4.3
		l8.1,3l-2.8,4.3l-24.8,23.9l-16.9-6.5l5.4-5.7L244.9,688.8L244.9,688.8z"/>
	<path id="mun_3515004" inkscape:connector-curvature="0" class="st1" d="M196.7,722.9l-7.6,1.1l-1.7-3.2l-6.8-0.7l-1.7-2l7.6-17.4
		l10.6-3.3l3.1-3.5l8.6,2.1l7.5-6.1l2.5,4.5h3.6l5.4,4.7l17.2-10.1l-0.3,9.8l-5.4,5.6l16.9,6.5l-5.7,22.9l-11.7,1.8l-1.3-5.4
		l-3.1-1.6l-11.3,3l-1.9,2.4l-13.3-0.9L196.7,722.9L196.7,722.9L196.7,722.9z"/>
	<path id="mun_3522208" inkscape:connector-curvature="0" class="st1" d="M166,790.1l5.5-11.1l-0.7-3.1l2-2.6l-4-7l1.3-2.7l2.9-1.9
		l2.7,0.8l0.5-2.9l4.4-1.2l7-8.4l4.1-20.8l4.9-6.4l11.3,10l13.3,0.9l1.9-2.4l11.3-3l3.1,1.6l1.3,5.4l11.7-1.8l2.6,5.3l-1.1,2.4
		l4.5,2.3l-1,13.8l-3,3.7l2.6,6.7L271,777l-4.5,6.7l-7.3-0.8l-7.2,3.8l-4.6-2.7l-8.7,0.4l-6.4,7l-5.4-0.1l-6.4,10.5l-3.7-0.6
		l-0.9,2.6l-3.8,3l-5.4-3.6l-5.2-5.1l-6.9,2.9l-3.6,0.4l-7.1-7.7l0.4,5.6l-2.6-2.1l-1.6-3.3L166,790.1L166,790.1L166,790.1z"/>
	<path id="mun_3515103" inkscape:connector-curvature="0" class="st1" d="M184.4,886.9l10.6-10.6l2.2-10.7l4-3.5l7.2-0.3l2.6-4.1
		l3-0.4l6.3-12.4l1-7.3l-14.2-0.9L200,830l-7.3-2.7l4.9-2.9l2.8-3.2l-1-5.4l4-4.5l-1.8-6l5.2-2.1l5.4,3.6l3.8-3l0.9-2.6l3.7,0.6
		l6.4-10.5l5.4,0.1l6.4-7l8.7-0.4l4.5,2.7l7.2-3.8l7.3,0.8l-8.6,6.4l0,8.2l-6.1,6.9l-1.8,4l1.9,1.5l16.1,4.7l6.7,5.3v5.1l-2.2,4.8
		l-7.9-1.1l1.4,31.5l-14.6,0.2l-4-3.9l1.2,4.3l-4.1,8.8l0.5,7.6l-19.2,10.4l-1.2-1.3l-8.2,1.9l-5-3.3l-4.2,1.4l-1.4-3.8l-3.6-0.3
		l-14.8,8L184.4,886.9L184.4,886.9L184.4,886.9z"/>
	<path id="mun_3526209" inkscape:connector-curvature="0" class="st1" d="M5,927l3.5-5.3l3.3-0.2l-3.2-10l-4-1.2l0.2-2.4L2,909
		l-1.7-3.5l1.8-2.9l5.3-1.3l1.2-2.7l-4.4-4.4l0.8-4.5l3.1,1.1l3-1.2l-1.3-4.1l0.8-3l4.6,1.9l2.5,3.7l1.5-3.2l2.9,1.7l7.9-0.4l2.3-8
		l10.7-10.2l-2.1-2.4l3.9-3.4l-2.4-3l3.8-4.3l-1-1.5l4.4-2.1l0.5-1.4l-3.5-1.4l1.6-5.7l7.2-8.7l0.8-5l6.7,4.9L87,831l0.6-3.1
		l9.2,4.1l7.9-6l6.1,6.4l12.9,12l6.1,4.2l2.5,7.3l3.1,2.6l-1.8,2.5l4.9,1.3l6.1-4.7l11.1,9.5l2.5,10.5l4.8,6.8l2.4-1.2l10.1,4.8
		l2.1-1.8l2.6,2.9l4.2-2l2.9,4l14.8-8l3.6,0.4l1.4,3.8l4.2-1.4l5,3.4l8.2-1.9l1.2,1.3l19.2-10.4l2.6,10.5l-14.4,5.9l4.2,4.8l-2,1.9
		l-5.3-1.2l-20.3,14.6l-3.7-0.9l-5.5,3.3l-0.3,3.4l4.9,7.5l2.5-2l1.2,1.3l0.4,5.4l-3,4l3.5,1.9l-2.6,2.9l-8.3,0.3l-0.1,2.6l-4.7,3.5
		l2.3,2.6l-5.3,1.8l-1.5,2.8l-6.8-2.8l-10.4,2.1l-4.9-7.1l-6.1,6.2l-13.3,0.7l1.9,8.4l-8,3.1l-3.7-3.3l-4.8,0l-3.2-4l-4.8,0.5
		l-1.8,4.5l-5.5-0.4l-6.8-4.2l0.4-6.2l-1.9-0.3l-1.6-5.3l-5.3-5l-3.1,0.1v-3.4l-4.7-4.9l-2.9,0.1l-6.4,8.3l-14.2-4.7l-0.5-4.4
		l-4.2-2.4l-0.5-5.3l-4.1-1.9l-10.3,1.6l1.4,5.7l-3.8,1.6l-6.5,3l-19.4-7.3L12.4,928l-3.1-2.4L5,927L5,927L5,927z"/>
</g>
</svg>
